<?xml version="1.0" encoding="UTF-8" standalone="no"?>
<!DOCTYPE svg PUBLIC "-//W3C//DTD SVG 1.1//EN"
 "http://www.w3.org/Graphics/SVG/1.1/DTD/svg11.dtd">
<!-- Generated by graphviz version 8.0.5 (20230430.1635)
 -->
<!-- Pages: 1 -->
<svg width="2368pt" height="692pt"
 viewBox="0.00 0.00 2367.69 692.00" xmlns="http://www.w3.org/2000/svg" xmlns:xlink="http://www.w3.org/1999/xlink">
<g id="graph0" class="graph" transform="scale(1 1) rotate(0) translate(4 688)">
<polygon fill="white" stroke="none" points="-4,4 -4,-688 2363.69,-688 2363.69,4 -4,4"/>
<!-- [root] aws_instance.sle12sp5 (expand) -->
<g id="node1" class="node">
<title>[root] aws_instance.sle12sp5 (expand)</title>
<polygon fill="none" stroke="black" points="877.66,-396 738.66,-396 738.66,-360 877.66,-360 877.66,-396"/>
<text text-anchor="middle" x="808.16" y="-372.95" font-family="Times,serif" font-size="14.00">aws_instance.sle12sp5</text>
</g>
<!-- [root] aws_instance.suma&#45;monsrv (expand) -->
<g id="node4" class="node">
<title>[root] aws_instance.suma&#45;monsrv (expand)</title>
<polygon fill="none" stroke="black" points="891.54,-324 724.79,-324 724.79,-288 891.54,-288 891.54,-324"/>
<text text-anchor="middle" x="808.16" y="-300.95" font-family="Times,serif" font-size="14.00">aws_instance.suma&#45;monsrv</text>
</g>
<!-- [root] aws_instance.sle12sp5 (expand)&#45;&gt;[root] aws_instance.suma&#45;monsrv (expand) -->
<g id="edge1" class="edge">
<title>[root] aws_instance.sle12sp5 (expand)&#45;&gt;[root] aws_instance.suma&#45;monsrv (expand)</title>
<path fill="none" stroke="black" d="M808.16,-359.7C808.16,-352.24 808.16,-343.32 808.16,-334.97"/>
<polygon fill="black" stroke="black" points="811.66,-335.1 808.16,-325.1 804.66,-335.1 811.66,-335.1"/>
</g>
<!-- [root] aws_instance.sle15sp3 (expand) -->
<g id="node2" class="node">
<title>[root] aws_instance.sle15sp3 (expand)</title>
<polygon fill="none" stroke="black" points="720.66,-396 581.66,-396 581.66,-360 720.66,-360 720.66,-396"/>
<text text-anchor="middle" x="651.16" y="-372.95" font-family="Times,serif" font-size="14.00">aws_instance.sle15sp3</text>
</g>
<!-- [root] aws_instance.sle15sp3 (expand)&#45;&gt;[root] aws_instance.suma&#45;monsrv (expand) -->
<g id="edge2" class="edge">
<title>[root] aws_instance.sle15sp3 (expand)&#45;&gt;[root] aws_instance.suma&#45;monsrv (expand)</title>
<path fill="none" stroke="black" d="M690.37,-359.52C711.25,-350.21 737.11,-338.68 759.28,-328.79"/>
<polygon fill="black" stroke="black" points="760.47,-331.65 768.18,-324.38 757.62,-325.26 760.47,-331.65"/>
</g>
<!-- [root] aws_instance.suma (expand) -->
<g id="node3" class="node">
<title>[root] aws_instance.suma (expand)</title>
<polygon fill="none" stroke="black" points="1168.66,-180 1047.66,-180 1047.66,-144 1168.66,-144 1168.66,-180"/>
<text text-anchor="middle" x="1108.16" y="-156.95" font-family="Times,serif" font-size="14.00">aws_instance.suma</text>
</g>
<!-- [root] provider[&quot;registry.terraform.io/hashicorp/aws&quot;] -->
<g id="node12" class="node">
<title>[root] provider[&quot;registry.terraform.io/hashicorp/aws&quot;]</title>
<polygon fill="none" stroke="black" points="827.16,-108 562.73,-90 827.16,-72 1091.59,-90 827.16,-108"/>
<text text-anchor="middle" x="827.16" y="-84.95" font-family="Times,serif" font-size="14.00">provider[&quot;registry.terraform.io/hashicorp/aws&quot;]</text>
</g>
<!-- [root] aws_instance.suma (expand)&#45;&gt;[root] provider[&quot;registry.terraform.io/hashicorp/aws&quot;] -->
<g id="edge3" class="edge">
<title>[root] aws_instance.suma (expand)&#45;&gt;[root] provider[&quot;registry.terraform.io/hashicorp/aws&quot;]</title>
<path fill="none" stroke="black" d="M1047.19,-145.81C1001.66,-134.47 939.53,-118.99 892.9,-107.38"/>
<polygon fill="black" stroke="black" points="893.85,-103.76 883.3,-104.74 892.16,-110.55 893.85,-103.76"/>
</g>
<!-- [root] tls_private_key.global_key (expand) -->
<g id="node15" class="node">
<title>[root] tls_private_key.global_key (expand)</title>
<polygon fill="none" stroke="black" points="1890.29,-108 1728.04,-108 1728.04,-72 1890.29,-72 1890.29,-108"/>
<text text-anchor="middle" x="1809.16" y="-84.95" font-family="Times,serif" font-size="14.00">tls_private_key.global_key</text>
</g>
<!-- [root] aws_instance.suma (expand)&#45;&gt;[root] tls_private_key.global_key (expand) -->
<g id="edge4" class="edge">
<title>[root] aws_instance.suma (expand)&#45;&gt;[root] tls_private_key.global_key (expand)</title>
<path fill="none" stroke="black" d="M1169.14,-154.91C1292.31,-142.61 1571.36,-114.75 1716.92,-100.21"/>
<polygon fill="black" stroke="black" points="1716.99,-103.62 1726.59,-99.15 1716.3,-96.66 1716.99,-103.62"/>
</g>
<!-- [root] var.suse_manager_subscription -->
<g id="node19" class="node">
<title>[root] var.suse_manager_subscription</title>
<polygon fill="none" stroke="black" points="1290.29,-108 1110.04,-108 1110.04,-72 1296.29,-72 1296.29,-102 1290.29,-108"/>
<polyline fill="none" stroke="black" points="1290.29,-108 1290.29,-102"/>
<polyline fill="none" stroke="black" points="1296.29,-102 1290.29,-102"/>
<text text-anchor="middle" x="1203.16" y="-84.95" font-family="Times,serif" font-size="14.00">var.suse_manager_subscription</text>
</g>
<!-- [root] aws_instance.suma (expand)&#45;&gt;[root] var.suse_manager_subscription -->
<g id="edge5" class="edge">
<title>[root] aws_instance.suma (expand)&#45;&gt;[root] var.suse_manager_subscription</title>
<path fill="none" stroke="black" d="M1131.64,-143.7C1143.52,-134.95 1158.11,-124.19 1171.01,-114.69"/>
<polygon fill="black" stroke="black" points="1172.64,-117.1 1178.62,-108.35 1168.49,-111.46 1172.64,-117.1"/>
</g>
<!-- [root] aws_instance.suma&#45;proxy (expand) -->
<g id="node5" class="node">
<title>[root] aws_instance.suma&#45;proxy (expand)</title>
<polygon fill="none" stroke="black" points="1045.66,-252 888.66,-252 888.66,-216 1045.66,-216 1045.66,-252"/>
<text text-anchor="middle" x="967.16" y="-228.95" font-family="Times,serif" font-size="14.00">aws_instance.suma&#45;proxy</text>
</g>
<!-- [root] aws_instance.suma&#45;monsrv (expand)&#45;&gt;[root] aws_instance.suma&#45;proxy (expand) -->
<g id="edge6" class="edge">
<title>[root] aws_instance.suma&#45;monsrv (expand)&#45;&gt;[root] aws_instance.suma&#45;proxy (expand)</title>
<path fill="none" stroke="black" d="M847.87,-287.52C869.01,-278.21 895.21,-266.68 917.66,-256.79"/>
<polygon fill="black" stroke="black" points="918.94,-259.61 926.68,-252.38 916.12,-253.21 918.94,-259.61"/>
</g>
<!-- [root] aws_instance.suma&#45;proxy (expand)&#45;&gt;[root] aws_instance.suma (expand) -->
<g id="edge7" class="edge">
<title>[root] aws_instance.suma&#45;proxy (expand)&#45;&gt;[root] aws_instance.suma (expand)</title>
<path fill="none" stroke="black" d="M1002.38,-215.52C1020.94,-206.3 1043.9,-194.9 1063.68,-185.08"/>
<polygon fill="black" stroke="black" points="1064.99,-187.84 1072.39,-180.26 1061.88,-181.57 1064.99,-187.84"/>
</g>
<!-- [root] aws_key_pair.suma&#45;demo_key_pair (expand) -->
<g id="node6" class="node">
<title>[root] aws_key_pair.suma&#45;demo_key_pair (expand)</title>
<polygon fill="none" stroke="black" points="933.41,-180 720.91,-180 720.91,-144 933.41,-144 933.41,-180"/>
<text text-anchor="middle" x="827.16" y="-156.95" font-family="Times,serif" font-size="14.00">aws_key_pair.suma&#45;demo_key_pair</text>
</g>
<!-- [root] aws_key_pair.suma&#45;demo_key_pair (expand)&#45;&gt;[root] provider[&quot;registry.terraform.io/hashicorp/aws&quot;] -->
<g id="edge8" class="edge">
<title>[root] aws_key_pair.suma&#45;demo_key_pair (expand)&#45;&gt;[root] provider[&quot;registry.terraform.io/hashicorp/aws&quot;]</title>
<path fill="none" stroke="black" d="M827.16,-143.7C827.16,-136.24 827.16,-127.32 827.16,-118.97"/>
<polygon fill="black" stroke="black" points="830.66,-119.1 827.16,-109.1 823.66,-119.1 830.66,-119.1"/>
</g>
<!-- [root] aws_key_pair.suma&#45;demo_key_pair (expand)&#45;&gt;[root] tls_private_key.global_key (expand) -->
<g id="edge9" class="edge">
<title>[root] aws_key_pair.suma&#45;demo_key_pair (expand)&#45;&gt;[root] tls_private_key.global_key (expand)</title>
<path fill="none" stroke="black" d="M933.67,-152.17C967.11,-149.47 1004.17,-146.54 1038.16,-144 1283.23,-125.7 1572.31,-106.46 1716.96,-96.99"/>
<polygon fill="black" stroke="black" points="1716.8,-100.44 1726.55,-96.29 1716.34,-93.45 1716.8,-100.44"/>
</g>
<!-- [root] local_file.hostfile (expand) -->
<g id="node7" class="node">
<title>[root] local_file.hostfile (expand)</title>
<polygon fill="none" stroke="black" points="1330.79,-540 1219.54,-540 1219.54,-504 1330.79,-504 1330.79,-540"/>
<text text-anchor="middle" x="1275.16" y="-516.95" font-family="Times,serif" font-size="14.00">local_file.hostfile</text>
</g>
<!-- [root] provider[&quot;registry.terraform.io/hashicorp/local&quot;] -->
<g id="node13" class="node">
<title>[root] provider[&quot;registry.terraform.io/hashicorp/local&quot;]</title>
<polygon fill="none" stroke="black" points="1493.16,-468 1223.66,-450 1493.16,-432 1762.66,-450 1493.16,-468"/>
<text text-anchor="middle" x="1493.16" y="-444.95" font-family="Times,serif" font-size="14.00">provider[&quot;registry.terraform.io/hashicorp/local&quot;]</text>
</g>
<!-- [root] local_file.hostfile (expand)&#45;&gt;[root] provider[&quot;registry.terraform.io/hashicorp/local&quot;] -->
<g id="edge15" class="edge">
<title>[root] local_file.hostfile (expand)&#45;&gt;[root] provider[&quot;registry.terraform.io/hashicorp/local&quot;]</title>
<path fill="none" stroke="black" d="M1329.61,-503.52C1362.61,-492.92 1404.6,-479.44 1437.77,-468.79"/>
<polygon fill="black" stroke="black" points="1438.76,-471.82 1447.21,-465.43 1436.62,-465.16 1438.76,-471.82"/>
</g>
<!-- [root] local.inventory_content_hostfile (expand) -->
<g id="node21" class="node">
<title>[root] local.inventory_content_hostfile (expand)</title>
<ellipse fill="none" stroke="black" cx="1016.16" cy="-450" rx="189.54" ry="18"/>
<text text-anchor="middle" x="1016.16" y="-444.95" font-family="Times,serif" font-size="14.00">[root] local.inventory_content_hostfile (expand)</text>
</g>
<!-- [root] local_file.hostfile (expand)&#45;&gt;[root] local.inventory_content_hostfile (expand) -->
<g id="edge14" class="edge">
<title>[root] local_file.hostfile (expand)&#45;&gt;[root] local.inventory_content_hostfile (expand)</title>
<path fill="none" stroke="black" d="M1219.28,-505.9C1180.7,-495.47 1129.07,-481.52 1087.52,-470.29"/>
<polygon fill="black" stroke="black" points="1088.48,-466.65 1077.91,-467.42 1086.66,-473.41 1088.48,-466.65"/>
</g>
<!-- [root] local_file.inventory (expand) -->
<g id="node8" class="node">
<title>[root] local_file.inventory (expand)</title>
<polygon fill="none" stroke="black" points="1201.41,-540 1078.91,-540 1078.91,-504 1201.41,-504 1201.41,-540"/>
<text text-anchor="middle" x="1140.16" y="-516.95" font-family="Times,serif" font-size="14.00">local_file.inventory</text>
</g>
<!-- [root] local_file.inventory (expand)&#45;&gt;[root] provider[&quot;registry.terraform.io/hashicorp/local&quot;] -->
<g id="edge17" class="edge">
<title>[root] local_file.inventory (expand)&#45;&gt;[root] provider[&quot;registry.terraform.io/hashicorp/local&quot;]</title>
<path fill="none" stroke="black" d="M1201.58,-505.89C1204.48,-505.24 1207.35,-504.6 1210.16,-504 1276.85,-489.67 1352.85,-475.56 1409.29,-465.5"/>
<polygon fill="black" stroke="black" points="1409.71,-468.8 1418.95,-463.61 1408.49,-461.91 1409.71,-468.8"/>
</g>
<!-- [root] local.inventory_content (expand) -->
<g id="node20" class="node">
<title>[root] local.inventory_content (expand)</title>
<ellipse fill="none" stroke="black" cx="651.16" cy="-450" rx="157.3" ry="18"/>
<text text-anchor="middle" x="651.16" y="-444.95" font-family="Times,serif" font-size="14.00">[root] local.inventory_content (expand)</text>
</g>
<!-- [root] local_file.inventory (expand)&#45;&gt;[root] local.inventory_content (expand) -->
<g id="edge16" class="edge">
<title>[root] local_file.inventory (expand)&#45;&gt;[root] local.inventory_content (expand)</title>
<path fill="none" stroke="black" d="M1078.46,-506.52C1073.97,-505.62 1069.5,-504.77 1065.16,-504 968.88,-486.96 859.07,-473.16 776.75,-463.92"/>
<polygon fill="black" stroke="black" points="777.15,-460.33 766.83,-462.7 776.38,-467.29 777.15,-460.33"/>
</g>
<!-- [root] local_file.private_key_file (expand) -->
<g id="node9" class="node">
<title>[root] local_file.private_key_file (expand)</title>
<polygon fill="none" stroke="black" points="1768.79,-540 1609.54,-540 1609.54,-504 1768.79,-504 1768.79,-540"/>
<text text-anchor="middle" x="1689.16" y="-516.95" font-family="Times,serif" font-size="14.00">local_file.private_key_file</text>
</g>
<!-- [root] local_file.private_key_file (expand)&#45;&gt;[root] provider[&quot;registry.terraform.io/hashicorp/local&quot;] -->
<g id="edge18" class="edge">
<title>[root] local_file.private_key_file (expand)&#45;&gt;[root] provider[&quot;registry.terraform.io/hashicorp/local&quot;]</title>
<path fill="none" stroke="black" d="M1640.21,-503.52C1611,-493.08 1573.95,-479.85 1544.35,-469.28"/>
<polygon fill="black" stroke="black" points="1545.81,-465.73 1535.22,-465.66 1543.46,-472.32 1545.81,-465.73"/>
</g>
<!-- [root] local_file.private_key_file (expand)&#45;&gt;[root] tls_private_key.global_key (expand) -->
<g id="edge19" class="edge">
<title>[root] local_file.private_key_file (expand)&#45;&gt;[root] tls_private_key.global_key (expand)</title>
<path fill="none" stroke="black" d="M1752.12,-503.54C1771.18,-495.49 1790.62,-484.04 1804.16,-468 1830.59,-436.7 1828.16,-419.97 1828.16,-379 1828.16,-379 1828.16,-379 1828.16,-233 1828.16,-193.21 1820.74,-147.71 1815.18,-119.16"/>
<polygon fill="black" stroke="black" points="1818.41,-118.5 1813.01,-109.39 1811.55,-119.88 1818.41,-118.5"/>
</g>
<!-- [root] local_file.ssh_public_key_openssh (expand) -->
<g id="node10" class="node">
<title>[root] local_file.ssh_public_key_openssh (expand)</title>
<polygon fill="none" stroke="black" points="1991.66,-540 1786.66,-540 1786.66,-504 1991.66,-504 1991.66,-540"/>
<text text-anchor="middle" x="1889.16" y="-516.95" font-family="Times,serif" font-size="14.00">local_file.ssh_public_key_openssh</text>
</g>
<!-- [root] local_file.ssh_public_key_openssh (expand)&#45;&gt;[root] provider[&quot;registry.terraform.io/hashicorp/local&quot;] -->
<g id="edge20" class="edge">
<title>[root] local_file.ssh_public_key_openssh (expand)&#45;&gt;[root] provider[&quot;registry.terraform.io/hashicorp/local&quot;]</title>
<path fill="none" stroke="black" d="M1790.26,-503.52C1724.1,-491.82 1638.05,-476.61 1575.6,-465.57"/>
<polygon fill="black" stroke="black" points="1576.46,-461.99 1566.01,-463.7 1575.25,-468.89 1576.46,-461.99"/>
</g>
<!-- [root] local_file.ssh_public_key_openssh (expand)&#45;&gt;[root] tls_private_key.global_key (expand) -->
<g id="edge21" class="edge">
<title>[root] local_file.ssh_public_key_openssh (expand)&#45;&gt;[root] tls_private_key.global_key (expand)</title>
<path fill="none" stroke="black" d="M1884.51,-503.66C1877.79,-477.05 1866.16,-424.45 1866.16,-379 1866.16,-379 1866.16,-379 1866.16,-233 1866.16,-192.03 1858.5,-181.57 1842.16,-144 1838.25,-135 1832.97,-125.73 1827.79,-117.52"/>
<polygon fill="black" stroke="black" points="1830.24,-115.88 1821.84,-109.43 1824.39,-119.71 1830.24,-115.88"/>
</g>
<!-- [root] local_sensitive_file.ssh_private_key_pem (expand) -->
<g id="node11" class="node">
<title>[root] local_sensitive_file.ssh_private_key_pem (expand)</title>
<polygon fill="none" stroke="black" points="1591.79,-540 1348.54,-540 1348.54,-504 1591.79,-504 1591.79,-540"/>
<text text-anchor="middle" x="1470.16" y="-516.95" font-family="Times,serif" font-size="14.00">local_sensitive_file.ssh_private_key_pem</text>
</g>
<!-- [root] local_sensitive_file.ssh_private_key_pem (expand)&#45;&gt;[root] provider[&quot;registry.terraform.io/hashicorp/local&quot;] -->
<g id="edge22" class="edge">
<title>[root] local_sensitive_file.ssh_private_key_pem (expand)&#45;&gt;[root] provider[&quot;registry.terraform.io/hashicorp/local&quot;]</title>
<path fill="none" stroke="black" d="M1475.85,-503.7C1478.35,-496.07 1481.36,-486.92 1484.16,-478.4"/>
<polygon fill="black" stroke="black" points="1487.74,-479.7 1487.54,-469.1 1481.09,-477.51 1487.74,-479.7"/>
</g>
<!-- [root] local_sensitive_file.ssh_private_key_pem (expand)&#45;&gt;[root] tls_private_key.global_key (expand) -->
<g id="edge23" class="edge">
<title>[root] local_sensitive_file.ssh_private_key_pem (expand)&#45;&gt;[root] tls_private_key.global_key (expand)</title>
<path fill="none" stroke="black" d="M1586.95,-503.51C1668.59,-490.79 1764.24,-474.68 1771.16,-468 1800.27,-439.92 1790.16,-419.45 1790.16,-379 1790.16,-379 1790.16,-379 1790.16,-233 1790.16,-193.21 1797.58,-147.71 1803.15,-119.16"/>
<polygon fill="black" stroke="black" points="1806.77,-119.88 1805.32,-109.39 1799.91,-118.5 1806.77,-119.88"/>
</g>
<!-- [root] var.aws_access_key -->
<g id="node16" class="node">
<title>[root] var.aws_access_key</title>
<polygon fill="none" stroke="black" points="813.54,-36 694.79,-36 694.79,0 819.54,0 819.54,-30 813.54,-36"/>
<polyline fill="none" stroke="black" points="813.54,-36 813.54,-30"/>
<polyline fill="none" stroke="black" points="819.54,-30 813.54,-30"/>
<text text-anchor="middle" x="757.16" y="-12.95" font-family="Times,serif" font-size="14.00">var.aws_access_key</text>
</g>
<!-- [root] provider[&quot;registry.terraform.io/hashicorp/aws&quot;]&#45;&gt;[root] var.aws_access_key -->
<g id="edge27" class="edge">
<title>[root] provider[&quot;registry.terraform.io/hashicorp/aws&quot;]&#45;&gt;[root] var.aws_access_key</title>
<path fill="none" stroke="black" d="M810.93,-72.76C802.34,-64.18 791.62,-53.46 782.02,-43.86"/>
<polygon fill="black" stroke="black" points="784.83,-41.72 775.29,-37.12 779.88,-46.67 784.83,-41.72"/>
</g>
<!-- [root] var.aws_secret_key -->
<g id="node18" class="node">
<title>[root] var.aws_secret_key</title>
<polygon fill="none" stroke="black" points="953.04,-36 837.29,-36 837.29,0 959.04,0 959.04,-30 953.04,-36"/>
<polyline fill="none" stroke="black" points="953.04,-36 953.04,-30"/>
<polyline fill="none" stroke="black" points="959.04,-30 953.04,-30"/>
<text text-anchor="middle" x="898.16" y="-12.95" font-family="Times,serif" font-size="14.00">var.aws_secret_key</text>
</g>
<!-- [root] provider[&quot;registry.terraform.io/hashicorp/aws&quot;]&#45;&gt;[root] var.aws_secret_key -->
<g id="edge28" class="edge">
<title>[root] provider[&quot;registry.terraform.io/hashicorp/aws&quot;]&#45;&gt;[root] var.aws_secret_key</title>
<path fill="none" stroke="black" d="M843.63,-72.76C852.27,-64.25 863.05,-53.62 872.73,-44.07"/>
<polygon fill="black" stroke="black" points="874.88,-46.88 879.54,-37.37 869.96,-41.9 874.88,-46.88"/>
</g>
<!-- [root] provider[&quot;registry.terraform.io/hashicorp/tls&quot;] -->
<g id="node14" class="node">
<title>[root] provider[&quot;registry.terraform.io/hashicorp/tls&quot;]</title>
<polygon fill="none" stroke="black" points="1809.16,-36 1552.69,-18 1809.16,0 2065.63,-18 1809.16,-36"/>
<text text-anchor="middle" x="1809.16" y="-12.95" font-family="Times,serif" font-size="14.00">provider[&quot;registry.terraform.io/hashicorp/tls&quot;]</text>
</g>
<!-- [root] tls_private_key.global_key (expand)&#45;&gt;[root] provider[&quot;registry.terraform.io/hashicorp/tls&quot;] -->
<g id="edge39" class="edge">
<title>[root] tls_private_key.global_key (expand)&#45;&gt;[root] provider[&quot;registry.terraform.io/hashicorp/tls&quot;]</title>
<path fill="none" stroke="black" d="M1809.16,-71.7C1809.16,-64.24 1809.16,-55.32 1809.16,-46.97"/>
<polygon fill="black" stroke="black" points="1812.66,-47.1 1809.16,-37.1 1805.66,-47.1 1812.66,-47.1"/>
</g>
<!-- [root] var.aws_region -->
<g id="node17" class="node">
<title>[root] var.aws_region</title>
<polygon fill="none" stroke="black" points="1017.41,-612 924.91,-612 924.91,-576 1023.41,-576 1023.41,-606 1017.41,-612"/>
<polyline fill="none" stroke="black" points="1017.41,-612 1017.41,-606"/>
<polyline fill="none" stroke="black" points="1023.41,-606 1017.41,-606"/>
<text text-anchor="middle" x="974.16" y="-588.95" font-family="Times,serif" font-size="14.00">var.aws_region</text>
</g>
<!-- [root] local.inventory_content (expand)&#45;&gt;[root] aws_instance.sle12sp5 (expand) -->
<g id="edge10" class="edge">
<title>[root] local.inventory_content (expand)&#45;&gt;[root] aws_instance.sle12sp5 (expand)</title>
<path fill="none" stroke="black" d="M689.17,-432.05C710.27,-422.64 736.76,-410.84 759.38,-400.75"/>
<polygon fill="black" stroke="black" points="760.43,-403.67 768.14,-396.4 757.58,-397.27 760.43,-403.67"/>
</g>
<!-- [root] local.inventory_content (expand)&#45;&gt;[root] aws_instance.sle15sp3 (expand) -->
<g id="edge11" class="edge">
<title>[root] local.inventory_content (expand)&#45;&gt;[root] aws_instance.sle15sp3 (expand)</title>
<path fill="none" stroke="black" d="M651.16,-431.7C651.16,-424.24 651.16,-415.32 651.16,-406.97"/>
<polygon fill="black" stroke="black" points="654.66,-407.1 651.16,-397.1 647.66,-407.1 654.66,-407.1"/>
</g>
<!-- [root] local.inventory_content_hostfile (expand)&#45;&gt;[root] aws_instance.sle12sp5 (expand) -->
<g id="edge12" class="edge">
<title>[root] local.inventory_content_hostfile (expand)&#45;&gt;[root] aws_instance.sle12sp5 (expand)</title>
<path fill="none" stroke="black" d="M966.34,-432.23C937.51,-422.53 900.97,-410.23 870.28,-399.9"/>
<polygon fill="black" stroke="black" points="871.71,-396.36 861.11,-396.48 869.47,-402.99 871.71,-396.36"/>
</g>
<!-- [root] local.inventory_content_hostfile (expand)&#45;&gt;[root] aws_instance.sle15sp3 (expand) -->
<g id="edge13" class="edge">
<title>[root] local.inventory_content_hostfile (expand)&#45;&gt;[root] aws_instance.sle15sp3 (expand)</title>
<path fill="none" stroke="black" d="M928.73,-433.6C874.47,-423.87 803.04,-410.75 731.44,-396.43"/>
<polygon fill="black" stroke="black" points="732.37,-392.85 721.88,-394.31 730.99,-399.71 732.37,-392.85"/>
</g>
<!-- [root] provider[&quot;registry.terraform.io/hashicorp/aws&quot;] (close) -->
<g id="node22" class="node">
<title>[root] provider[&quot;registry.terraform.io/hashicorp/aws&quot;] (close)</title>
<ellipse fill="none" stroke="black" cx="238.16" cy="-450" rx="238.16" ry="18"/>
<text text-anchor="middle" x="238.16" y="-444.95" font-family="Times,serif" font-size="14.00">[root] provider[&quot;registry.terraform.io/hashicorp/aws&quot;] (close)</text>
</g>
<!-- [root] provider[&quot;registry.terraform.io/hashicorp/aws&quot;] (close)&#45;&gt;[root] aws_instance.sle12sp5 (expand) -->
<g id="edge24" class="edge">
<title>[root] provider[&quot;registry.terraform.io/hashicorp/aws&quot;] (close)&#45;&gt;[root] aws_instance.sle12sp5 (expand)</title>
<path fill="none" stroke="black" d="M396.27,-436.16C489.96,-427.53 611.15,-414.62 727.89,-396.11"/>
<polygon fill="black" stroke="black" points="728.13,-399.45 737.45,-394.41 727.02,-392.54 728.13,-399.45"/>
</g>
<!-- [root] provider[&quot;registry.terraform.io/hashicorp/aws&quot;] (close)&#45;&gt;[root] aws_instance.sle15sp3 (expand) -->
<g id="edge25" class="edge">
<title>[root] provider[&quot;registry.terraform.io/hashicorp/aws&quot;] (close)&#45;&gt;[root] aws_instance.sle15sp3 (expand)</title>
<path fill="none" stroke="black" d="M332.39,-433.03C404.37,-420.83 502.49,-404.2 570.78,-392.62"/>
<polygon fill="black" stroke="black" points="571.2,-395.93 580.48,-390.81 570.03,-389.03 571.2,-395.93"/>
</g>
<!-- [root] provider[&quot;registry.terraform.io/hashicorp/aws&quot;] (close)&#45;&gt;[root] aws_key_pair.suma&#45;demo_key_pair (expand) -->
<g id="edge26" class="edge">
<title>[root] provider[&quot;registry.terraform.io/hashicorp/aws&quot;] (close)&#45;&gt;[root] aws_key_pair.suma&#45;demo_key_pair (expand)</title>
<path fill="none" stroke="black" d="M273.68,-431.75C375.44,-382.34 668.02,-240.28 781.45,-185.2"/>
<polygon fill="black" stroke="black" points="782.76,-187.97 790.22,-180.45 779.7,-181.67 782.76,-187.97"/>
</g>
<!-- [root] provider[&quot;registry.terraform.io/hashicorp/local&quot;] (close) -->
<g id="node23" class="node">
<title>[root] provider[&quot;registry.terraform.io/hashicorp/local&quot;] (close)</title>
<ellipse fill="none" stroke="black" cx="1396.16" cy="-594" rx="241.74" ry="18"/>
<text text-anchor="middle" x="1396.16" y="-588.95" font-family="Times,serif" font-size="14.00">[root] provider[&quot;registry.terraform.io/hashicorp/local&quot;] (close)</text>
</g>
<!-- [root] provider[&quot;registry.terraform.io/hashicorp/local&quot;] (close)&#45;&gt;[root] local_file.hostfile (expand) -->
<g id="edge29" class="edge">
<title>[root] provider[&quot;registry.terraform.io/hashicorp/local&quot;] (close)&#45;&gt;[root] local_file.hostfile (expand)</title>
<path fill="none" stroke="black" d="M1366.25,-575.7C1350.54,-566.61 1331.1,-555.36 1314.22,-545.6"/>
<polygon fill="black" stroke="black" points="1316.56,-542.32 1306.15,-540.35 1313.05,-548.38 1316.56,-542.32"/>
</g>
<!-- [root] provider[&quot;registry.terraform.io/hashicorp/local&quot;] (close)&#45;&gt;[root] local_file.inventory (expand) -->
<g id="edge30" class="edge">
<title>[root] provider[&quot;registry.terraform.io/hashicorp/local&quot;] (close)&#45;&gt;[root] local_file.inventory (expand)</title>
<path fill="none" stroke="black" d="M1334.52,-576.14C1297.58,-566.04 1250.44,-553.16 1211.84,-542.6"/>
<polygon fill="black" stroke="black" points="1213.28,-539.09 1202.71,-539.83 1211.44,-545.84 1213.28,-539.09"/>
</g>
<!-- [root] provider[&quot;registry.terraform.io/hashicorp/local&quot;] (close)&#45;&gt;[root] local_file.private_key_file (expand) -->
<g id="edge31" class="edge">
<title>[root] provider[&quot;registry.terraform.io/hashicorp/local&quot;] (close)&#45;&gt;[root] local_file.private_key_file (expand)</title>
<path fill="none" stroke="black" d="M1465.97,-576.32C1507.89,-566.31 1561.47,-553.51 1605.63,-542.96"/>
<polygon fill="black" stroke="black" points="1606.14,-546.19 1615.06,-540.47 1604.52,-539.38 1606.14,-546.19"/>
</g>
<!-- [root] provider[&quot;registry.terraform.io/hashicorp/local&quot;] (close)&#45;&gt;[root] local_file.ssh_public_key_openssh (expand) -->
<g id="edge32" class="edge">
<title>[root] provider[&quot;registry.terraform.io/hashicorp/local&quot;] (close)&#45;&gt;[root] local_file.ssh_public_key_openssh (expand)</title>
<path fill="none" stroke="black" d="M1509.46,-577.71C1582.76,-567.71 1680.53,-554.19 1775.67,-540.35"/>
<polygon fill="black" stroke="black" points="1775.97,-543.7 1785.36,-538.8 1774.96,-536.78 1775.97,-543.7"/>
</g>
<!-- [root] provider[&quot;registry.terraform.io/hashicorp/local&quot;] (close)&#45;&gt;[root] local_sensitive_file.ssh_private_key_pem (expand) -->
<g id="edge33" class="edge">
<title>[root] provider[&quot;registry.terraform.io/hashicorp/local&quot;] (close)&#45;&gt;[root] local_sensitive_file.ssh_private_key_pem (expand)</title>
<path fill="none" stroke="black" d="M1414.45,-575.7C1423.35,-567.28 1434.2,-557.02 1443.95,-547.79"/>
<polygon fill="black" stroke="black" points="1445.96,-550.76 1450.82,-541.35 1441.15,-545.68 1445.96,-550.76"/>
</g>
<!-- [root] provider[&quot;registry.terraform.io/hashicorp/tls&quot;] (close) -->
<g id="node24" class="node">
<title>[root] provider[&quot;registry.terraform.io/hashicorp/tls&quot;] (close)</title>
<ellipse fill="none" stroke="black" cx="2127.16" cy="-306" rx="232.53" ry="18"/>
<text text-anchor="middle" x="2127.16" y="-300.95" font-family="Times,serif" font-size="14.00">[root] provider[&quot;registry.terraform.io/hashicorp/tls&quot;] (close)</text>
</g>
<!-- [root] provider[&quot;registry.terraform.io/hashicorp/tls&quot;] (close)&#45;&gt;[root] tls_private_key.global_key (expand) -->
<g id="edge34" class="edge">
<title>[root] provider[&quot;registry.terraform.io/hashicorp/tls&quot;] (close)&#45;&gt;[root] tls_private_key.global_key (expand)</title>
<path fill="none" stroke="black" d="M2101.41,-287.67C2044.61,-249.45 1908.55,-157.89 1844.12,-114.53"/>
<polygon fill="black" stroke="black" points="1846.41,-111.17 1836.16,-108.49 1842.5,-116.98 1846.41,-111.17"/>
</g>
<!-- [root] root -->
<g id="node25" class="node">
<title>[root] root</title>
<ellipse fill="none" stroke="black" cx="1260.16" cy="-666" rx="49.3" ry="18"/>
<text text-anchor="middle" x="1260.16" y="-660.95" font-family="Times,serif" font-size="14.00">[root] root</text>
</g>
<!-- [root] root&#45;&gt;[root] var.aws_region -->
<g id="edge38" class="edge">
<title>[root] root&#45;&gt;[root] var.aws_region</title>
<path fill="none" stroke="black" d="M1218.97,-655.6C1174.15,-645.29 1100.42,-628.05 1037.16,-612 1036.2,-611.76 1035.23,-611.51 1034.26,-611.26"/>
<polygon fill="black" stroke="black" points="1035.21,-607.63 1024.65,-608.5 1033.45,-614.41 1035.21,-607.63"/>
</g>
<!-- [root] root&#45;&gt;[root] provider[&quot;registry.terraform.io/hashicorp/aws&quot;] (close) -->
<g id="edge35" class="edge">
<title>[root] root&#45;&gt;[root] provider[&quot;registry.terraform.io/hashicorp/aws&quot;] (close)</title>
<path fill="none" stroke="black" d="M1230.97,-651.24C1188.26,-631.66 1105.79,-595.91 1032.16,-576 815.33,-517.35 557.26,-483.04 395.54,-465.64"/>
<polygon fill="black" stroke="black" points="396.34,-462.1 386.03,-464.52 395.6,-469.06 396.34,-462.1"/>
</g>
<!-- [root] root&#45;&gt;[root] provider[&quot;registry.terraform.io/hashicorp/local&quot;] (close) -->
<g id="edge36" class="edge">
<title>[root] root&#45;&gt;[root] provider[&quot;registry.terraform.io/hashicorp/local&quot;] (close)</title>
<path fill="none" stroke="black" d="M1288.01,-650.67C1306.66,-641.07 1331.59,-628.24 1352.81,-617.31"/>
<polygon fill="black" stroke="black" points="1354.29,-619.97 1361.58,-612.29 1351.08,-613.75 1354.29,-619.97"/>
</g>
<!-- [root] root&#45;&gt;[root] provider[&quot;registry.terraform.io/hashicorp/tls&quot;] (close) -->
<g id="edge37" class="edge">
<title>[root] root&#45;&gt;[root] provider[&quot;registry.terraform.io/hashicorp/tls&quot;] (close)</title>
<path fill="none" stroke="black" d="M1308.39,-661.84C1484.85,-649.65 2085.16,-602.34 2085.16,-523 2085.16,-523 2085.16,-523 2085.16,-449 2085.16,-407.74 2101.67,-362.4 2113.99,-334.32"/>
<polygon fill="black" stroke="black" points="2117.52,-335.99 2118.46,-325.44 2111.15,-333.11 2117.52,-335.99"/>
</g>
</g>
</svg>
